<svg xmlns="http://www.w3.org/2000/svg" width="40" height="41" viewBox="0 0 40 41">
  <g id="Group_409" data-name="Group 409" transform="translate(-0.057 0.283)">
    <circle id="Ellipse_15" data-name="Ellipse 15" cx="13.132" cy="13.132" r="13.132" transform="translate(9.849 7.09)" fill="#ffbe00" opacity="0.399"/>
    <g id="sport-takraw">
      <g id="Frames-24px" transform="translate(0)">
        <rect id="Rectangle_234" data-name="Rectangle 234" width="40" height="41" transform="translate(0.057 -0.283)" fill="none"/>
      </g>
      <g id="Outline" transform="translate(5.416 1.045)">
        <path id="Path_375" data-name="Path 375" d="M31.659,17.832a14.83,14.83,0,1,0-14.843,14.83h.012A14.888,14.888,0,0,0,31.659,17.832ZM16.274,29.659A20.379,20.379,0,0,0,26.359,19.282a13.5,13.5,0,0,1,1.86,1.823A11.824,11.824,0,0,1,16.274,29.659ZM9.545,27.175A15.75,15.75,0,0,0,21.675,16.866a10.894,10.894,0,0,1,2.782,1.173,18.243,18.243,0,0,1-12.14,10.749A11.539,11.539,0,0,1,9.545,27.175ZM6.628,11.808A20.236,20.236,0,0,0,10.8,24.575a13.743,13.743,0,0,1-3.261.615A11.84,11.84,0,0,1,6.628,11.808Zm5.456-4.842A15.748,15.748,0,0,0,15.148,22.3a11.593,11.593,0,0,1-2.211,1.412A18.011,18.011,0,0,1,9.183,8.779,11.783,11.783,0,0,1,12.084,6.966Zm14.8,4.6A20.118,20.118,0,0,0,13.692,9.7a13.681,13.681,0,0,1,1.083-3.534A11.8,11.8,0,0,1,26.887,11.567ZM13.763,14.609a13.713,13.713,0,0,1-.262-2.583,18.029,18.029,0,0,1,14.852,3.025,11.683,11.683,0,0,1,.314,3.319A15.781,15.781,0,0,0,13.763,14.609Zm3.015,6.177a13.648,13.648,0,0,1-2.391-4.038,13.6,13.6,0,0,1,5.094-.349A13.6,13.6,0,0,1,16.778,20.786Z" transform="translate(-2 6.783)" fill="#222"/>
        <path id="Path_376" data-name="Path 376" d="M8697.612,19745.186s-4.591-11.205,9.154-7.727,13.569-3.764,9.813-5.982" transform="translate(-8691.727 -19731.477)" fill="none" stroke="#222" stroke-width="3"/>
      </g>
    </g>
  </g>
</svg>
