<svg id="Group_411" data-name="Group 411" xmlns="http://www.w3.org/2000/svg" width="40.49" height="44.018" viewBox="0 0 40.49 44.018">
  <ellipse id="Ellipse_17" data-name="Ellipse 17" cx="7.66" cy="10.396" rx="7.66" ry="10.396" transform="translate(27.752) rotate(43)" fill="#ffbe00" opacity="0.399"/>
  <g id="food-chicken-drum-stick" transform="translate(0 3.527)">
    <g id="Frames-24px" transform="translate(0)">
      <rect id="Rectangle_228" data-name="Rectangle 228" width="40.49" height="40.49" fill="none"/>
    </g>
    <g id="Outline" transform="translate(3.845 4.197)">
      <path id="Path_371" data-name="Path 371" d="M31.722,5.51a9.789,9.789,0,0,0-14.123,0c-4.327,4.327-6.253,9.66-5.351,13.745L9.7,21.8H7.036a5.036,5.036,0,0,0-1.462,9.855A5.036,5.036,0,0,0,15.428,30.2V27.535l2.553-2.553a9.342,9.342,0,0,0,2.055.247c3.814,0,8.183-2.092,11.686-5.595A9.769,9.769,0,0,0,31.722,5.51ZM14.733,23.483l-2.17,2.17a1.674,1.674,0,0,0-.492,1.187V30.2a1.67,1.67,0,0,1-3.24.577L9.9,29.705,7.527,27.332,6.458,28.4a1.671,1.671,0,0,1,.577-3.241h3.357a1.674,1.674,0,0,0,1.187-.492l2.17-2.17ZM29.349,17.26c-4.309,4.309-10.1,5.986-12.733,3.357-2.585-2.585-1.079-8.3,3.357-12.734a6.437,6.437,0,0,1,9.376,0A6.414,6.414,0,0,1,29.349,17.26Z" transform="translate(-2 -2.5)" fill="#222"/>
    </g>
  </g>
</svg>
