<svg xmlns="http://www.w3.org/2000/svg" width="135.5" height="70.5" viewBox="0 0 135.5 70.5">
  <g id="Group_93" data-name="Group 93" transform="translate(0 0.5)">
    <path id="Path_1" data-name="Path 1" d="M-838.177,381.043q0,7.8,0,15.593a8.562,8.562,0,0,1-6.745,8.391,8.737,8.737,0,0,1-1.979.223q-8.9,0-17.8,0a8.634,8.634,0,0,1-8.566-6.816,10.768,10.768,0,0,1-.156-2.49c0-.246-.116-.552.075-.724.169-.151.465-.049.7-.049q11.872,0,23.743.007c.868,0,1.145-.294,1.144-1.137q-.023-11.729,0-23.457a5.752,5.752,0,0,1,3.366-5.408,5.5,5.5,0,0,1,2.535-.6c1.074,0,2.149,0,3.223,0,.514,0,.453,0,.453.471Q-838.177,373.045-838.177,381.043Z" transform="translate(873.453 -349.876)" fill="#222"/>
    <path id="Path_2" data-name="Path 2" d="M-324.115,590.74l6.942,6.944c-.007.1-.124.159-.2.239q-2.662,2.668-5.329,5.331a1.839,1.839,0,0,1-2.774.012q-2.672-2.659-5.33-5.33c-.259-.259-.261-.268-.037-.493q3.305-3.31,6.614-6.615A1.136,1.136,0,0,1-324.115,590.74Z" transform="translate(433.488 -533.892)" fill="#222"/>
    <path id="Path_3" data-name="Path 3" d="M-378.044,394.257h-9.889a2.262,2.262,0,0,1-.631-.05.774.774,0,0,1-.609-.751c-.014-.362,0-.726,0-1.089,0-.173.066-.251.241-.241.105.006.212,0,.317,0h19.96c.121,0,.243-.008.363,0a.83.83,0,0,1,.806.78c.035.375.011.755.017,1.133,0,.159-.083.212-.227.211-.121,0-.242,0-.363,0Z" transform="translate(480.685 -372.403)" fill="#222"/>
    <path id="Path_4" data-name="Path 4" d="M-180.71,286.923a.546.546,0,0,1,.547.539.573.573,0,0,1-.552.576.557.557,0,0,1-.563-.56A.56.56,0,0,1-180.71,286.923Z" transform="translate(312.623 -286.923)" fill="#ffbe00" stroke="#ffbe00" stroke-width="1"/>
    <path id="Path_5" data-name="Path 5" d="M-192.741,287.51a.544.544,0,0,1-.563.528.558.558,0,0,1-.551-.578.557.557,0,0,1,.591-.536A.521.521,0,0,1-192.741,287.51Z" transform="translate(321.855 -286.923)" fill="#ffbe00" stroke="#ffbe00" stroke-width="1"/>
    <path id="Path_6" data-name="Path 6" d="M-564.042,395.622c0-.184-.053-.289-.247-.3-.075,0-.15-.022-.225-.028a8.627,8.627,0,0,1-3.632-1.194A19.454,19.454,0,0,1-571.7,391.3c-1.625-1.542-3.19-3.145-4.741-4.761a32.022,32.022,0,0,0-3.377-3.1,25.363,25.363,0,0,0-13.253-5.536,21.873,21.873,0,0,0-6.19.24,23.375,23.375,0,0,0-10.146,4.607c-.09.069-.214.112-.245.246a1.11,1.11,0,0,0,.078.116c1.189,1.353,2.331,2.75,3.578,4.048a6.435,6.435,0,0,0,6.883,1.84,13.175,13.175,0,0,1,4.249-.559,14.9,14.9,0,0,1,5.4,1.261,14.775,14.775,0,0,1,6.317,5.557c.006.01,0,.027,0,.1h-.245q-8.262.04-16.524.079c-3.193.013-6.386.013-9.58.018-.167,0-.334.007-.5-.008a1.869,1.869,0,0,1-1.837-1.859,17.177,17.177,0,0,0-2.093-7.357,12.553,12.553,0,0,0-6.526-5.9,15.052,15.052,0,0,0-4.365-.975,14.971,14.971,0,0,0-4.648.26,13.427,13.427,0,0,0-10.313,9.63,13.36,13.36,0,0,0-.617,4.249,2.113,2.113,0,0,1-2.186,2.162c-.242-.013-.484,0-.726,0a4.34,4.34,0,0,1-2.925-1.169,4.544,4.544,0,0,1-1.482-3.527q.009-10.014,0-20.028a8.091,8.091,0,0,0-.07-1.314,6,6,0,0,0-5.98-5.053c-1,.018-2,0-3,0-.6,0-.526-.056-.526.54q0,15.872,0,31.744a8.707,8.707,0,0,0,1.671,5.273,8.29,8.29,0,0,0,8.295,3.672,8.824,8.824,0,0,0,6.662-4.6c.1-.17.177-.353.285-.517a1.1,1.1,0,0,1,1.4-.391,1.392,1.392,0,0,1,.587.61,14.258,14.258,0,0,0,14.24,6.839,14.1,14.1,0,0,0,8.61-4.539,15.887,15.887,0,0,0,1.418-1.827,1.091,1.091,0,0,1,1.888-.014c.072.1.138.2.209.3a9.308,9.308,0,0,0,1.843,1.932,12.187,12.187,0,0,0,7.713,2.73c3.829-.038,7.658-.009,11.487-.009q8.785,0,17.571,0a9.071,9.071,0,0,0,7.567-3.807,9.055,9.055,0,0,0,1.794-5.241C-564.028,396.713-564.05,396.167-564.042,395.622Zm-62.085,2.937a4.91,4.91,0,0,1-4.938-5.055,4.848,4.848,0,0,1,4.992-4.9,4.967,4.967,0,0,1,4.948,5.03A5.012,5.012,0,0,1-626.128,398.559Z" transform="translate(698.004 -350.219)" fill="#222"/>
    <path id="Path_7" data-name="Path 7" d="M-460.229,304.548a1.965,1.965,0,0,0-2.014-1.989c-1.786.023-3.572,0-5.358.008a2.065,2.065,0,0,0-.45.039,1.681,1.681,0,0,0-1.343,1.755c-.007,1.59,0,3.179,0,4.769a3.283,3.283,0,0,0,.132.848,1.931,1.931,0,0,1,.176.565c-.1.008-.19.021-.279.021q-1.5,0-3,0c-.388,0-.393-.006-.393-.409,0-1.317,0-2.634,0-3.951a3.618,3.618,0,0,0-.062-.813,3.593,3.593,0,0,0-3.542-2.825c-4.177,0-8.355,0-12.532,0a4.053,4.053,0,0,0-2.456.8c-.08.058-.148.158-.309.109,0-.381.013-.771,0-1.16a.559.559,0,0,0-.611-.584.564.564,0,0,0-.583.567c-.011.135,0,.272,0,.408q0,3.7,0,7.4c0,.453,0,.456-.435.456q-1.884,0-3.769,0c-.424,0-.427,0-.428-.416,0-1.3,0-2.6,0-3.906a3.6,3.6,0,0,0-3.681-3.677q-6.221,0-12.441,0a4.025,4.025,0,0,0-2.34.739c-.107.073-.183.2-.373.2-.006-.067-.017-.137-.018-.208,0-.333.009-.667-.008-1a.545.545,0,0,0-.578-.565.571.571,0,0,0-.613.541,3.445,3.445,0,0,0-.008.408q0,4.11,0,8.22a6.142,6.142,0,0,1-.181,1.482,5.862,5.862,0,0,1-6.538,4.508,5.877,5.877,0,0,1-5-5.67c.01-1.257,0-2.513,0-3.77a1.292,1.292,0,0,0-.037-.45.625.625,0,0,0-.582-.429.605.605,0,0,0-.572.435,1.517,1.517,0,0,0-.05.494c0,1.029-.006,2.059,0,3.088a9.127,9.127,0,0,0,.154,1.714,7.061,7.061,0,0,0,10.643,4.813,6.847,6.847,0,0,0,3.252-4.714c.145-.734.052-.59.686-.59q24.973-.005,49.946,0c1.589,0,3.179,0,4.768,0,.613,0,.822-.211.823-.812C-460.24,308.847-460.265,306.7-460.229,304.548Zm-38.511,5.676c0,.332-.009.339-.366.339q-2.5,0-4.99,0h-11.7c-.586,0-.547.055-.547-.528,0-1.119,0-2.239,0-3.358a3.99,3.99,0,0,1,.059-.676,2.612,2.612,0,0,1,2.427-2.192c.121-.007.242-.012.363-.012q6.1,0,12.2,0a2.521,2.521,0,0,1,1.62.473,2.21,2.21,0,0,1,.935,1.782C-498.731,307.44-498.737,308.832-498.74,310.224Zm24.779.043c0,.289-.013.3-.365.3q-2.406,0-4.812,0h-11.848c-.091,0-.181,0-.272,0-.392-.006-.4-.006-.4-.4,0-1.226-.006-2.452,0-3.678a2.64,2.64,0,0,1,2.585-2.678c.106,0,.212-.006.318-.006q6.083,0,12.166,0a2.565,2.565,0,0,1,1.7.5,2.256,2.256,0,0,1,.912,1.754C-473.944,307.451-473.959,308.859-473.962,310.266Zm12.522-2.829c0,.923,0,1.845,0,2.768,0,.348-.008.356-.351.357-1.679,0-3.357.009-5.036,0a1.3,1.3,0,0,1-1.323-1.327c-.01-1.618-.006-3.237,0-4.856,0-.45.116-.575.564-.577q2.676-.01,5.353,0c.547,0,.788.259.792.823C-461.434,305.562-461.439,306.5-461.439,307.437Z" transform="translate(595.229 -298.927)" fill="#ffbe00" stroke="#ffbe00" stroke-width="1"/>
  </g>
</svg>
