<svg xmlns="http://www.w3.org/2000/svg" width="38.694" height="56.381" viewBox="0 0 38.694 56.381">
  <g id="Group_443" data-name="Group 443" transform="translate(-4950.306 14446)">
    <path id="Union_3" data-name="Union 3" d="M13.609,35.447c-7.343-3.741-7.054-9.265-7.038-9.5l-.24-9.193c.005-.13.145-2.219,1.885-2.723a2.517,2.517,0,0,1,2.043.168,2.532,2.532,0,0,1,1.073,1.527l.789,4.414,1.4-2.781.108-.146,4.939-9.7a2.937,2.937,0,0,1,1.643-1.571,3.029,3.029,0,0,1,1.841.131l0,0a2.344,2.344,0,0,1,1.088,1.269l.019-.037A2.491,2.491,0,0,1,26.492,6.1l.038.019.039.02A2.621,2.621,0,0,1,27.84,9.1a2.343,2.343,0,0,1,1.533.212,2.607,2.607,0,0,1,1.106,3.477l-.667,1.31c.156-.306,1.064-.084,1.592.185a2.528,2.528,0,0,1,1.047,3.446L25.4,31.575c-.047.081-2.93,4.9-7.813,4.9A8.7,8.7,0,0,1,13.609,35.447Zm4.753-.014h-1.5A6.594,6.594,0,0,0,18.362,35.433Zm1.994-.555a8.026,8.026,0,0,0,1.261-.713Z" transform="translate(4955.46 -14431.157)" fill="#ffbe00" opacity="0.399"/>
    <path id="Polygon_4" data-name="Polygon 4" d="M6.536,3.521a1,1,0,0,1,1.929,0l.5,1.816a1,1,0,0,0,.7.7l1.816.5a1,1,0,0,1,0,1.929l-1.816.5a1,1,0,0,0-.7.7l-.5,1.816a1,1,0,0,1-1.929,0l-.5-1.816a1,1,0,0,0-.7-.7l-1.816-.5a1,1,0,0,1,0-1.929l1.816-.5a1,1,0,0,0,.7-.7Z" transform="translate(4956 -14437)" fill="#ffbe00" opacity="0.399"/>
    <path id="Polygon_3" data-name="Polygon 3" d="M9.536,3.521a1,1,0,0,1,1.929,0l1.142,4.171a1,1,0,0,0,.7.7l4.171,1.142a1,1,0,0,1,0,1.929l-4.171,1.142a1,1,0,0,0-.7.7l-1.142,4.171a1,1,0,0,1-1.929,0L8.393,13.307a1,1,0,0,0-.7-.7L3.521,11.464a1,1,0,0,1,0-1.929L7.693,8.393a1,1,0,0,0,.7-.7Z" transform="translate(4968 -14446)" fill="#ffbe00" opacity="0.399"/>
    <g id="hand" transform="matrix(0.891, 0.454, -0.454, 0.891, 4965.588, -14429.7)">
      <path id="Path_399" data-name="Path 399" d="M.286,18.651l4.387,8.082C4.765,26.948,7.015,32,15.256,32,23.4,32,23.994,23.316,24,23.2V7.659a2.528,2.528,0,0,0-2.5-2.595c-.593,0-1.5.214-1.5.558V4.152a2.606,2.606,0,0,0-2.564-2.6,2.343,2.343,0,0,0-1.462.507A2.621,2.621,0,0,0,13.495,0H13.41A2.49,2.49,0,0,0,11,2.6v.042A2.348,2.348,0,0,0,9.454,2h0a3.023,3.023,0,0,0-1.7.719A2.933,2.933,0,0,0,7,4.865V16a.5.5,0,0,0,1,0V4.865a1.665,1.665,0,0,1,.418-1.258A1.445,1.445,0,0,1,9.4,3.285,1.638,1.638,0,0,1,11,4.894V14a.5.5,0,0,0,1,0V2.6A1.52,1.52,0,0,1,13.452,1,1.6,1.6,0,0,1,15,2.6V15a.5.5,0,0,0,1,0V4.152a1.494,1.494,0,0,1,1.436-1.6A1.606,1.606,0,0,1,19,4.152v9.4a.5.5,0,0,0,1,0V7.691c0-.011-.058-.02-.058-.031a1.53,1.53,0,1,1,3.058,0V23.171C22.982,23.49,22.45,31,15.256,31c-7.548,0-9.581-4.471-9.683-4.7l-4.39-8.087C1.177,18.2.6,16.859,1.413,16.1a1.56,1.56,0,0,1,1.135-.512,1.523,1.523,0,0,1,.939.492L7.595,21.5a.5.5,0,1,0,.8-.6L4.275,15.465a2.532,2.532,0,0,0-1.649-.874,2.519,2.519,0,0,0-1.9.778C-.593,16.608.232,18.533.286,18.651Z" fill="#222" stroke="#222" stroke-width="1"/>
    </g>
    <g id="Polygon_1" data-name="Polygon 1" transform="translate(4954 -14435)" fill="none">
      <path d="M6.581,2.145a1,1,0,0,1,1.838,0L9.592,4.882a1,1,0,0,0,.525.525l2.738,1.173a1,1,0,0,1,0,1.838L10.118,9.592a1,1,0,0,0-.525.525L8.419,12.855a1,1,0,0,1-1.838,0L5.408,10.118a1,1,0,0,0-.525-.525L2.145,8.419a1,1,0,0,1,0-1.838L4.882,5.408a1,1,0,0,0,.525-.525Z" stroke="none"/>
      <path d="M 7.499996662139893 5.077180862426758 L 7.24586009979248 5.670169830322266 C 6.9410400390625 6.381440162658691 6.381440162658691 6.9410400390625 5.670169830322266 7.24586009979248 L 5.077176094055176 7.499998092651367 L 5.670169830322266 7.75413990020752 C 6.381440162658691 8.0589599609375 6.9410400390625 8.618559837341309 7.24586009979248 9.329830169677734 L 7.499998569488525 9.922822952270508 L 7.75413990020752 9.329830169677734 C 8.0589599609375 8.618559837341309 8.618559837341309 8.0589599609375 9.329830169677734 7.75413990020752 L 9.922823905944824 7.500001907348633 L 9.329830169677734 7.24586009979248 C 8.618559837341309 6.9410400390625 8.0589599609375 6.381440162658691 7.75413990020752 5.670180320739746 L 7.499996662139893 5.077180862426758 M 7.499998569488525 1.53858757019043 C 7.872987270355225 1.53858757019043 8.245975494384766 1.740614891052246 8.419139862060547 2.144669532775879 L 9.592430114746094 4.882340431213379 C 9.693580627441406 5.118359565734863 9.88163948059082 5.30642032623291 10.11766052246094 5.407569885253906 L 12.8553295135498 6.580860137939453 C 13.66343975067139 6.927189826965332 13.66343975067139 8.072810173034668 12.8553295135498 8.419149398803711 L 10.11766052246094 9.592430114746094 C 9.88163948059082 9.693580627441406 9.693580627441406 9.88163948059082 9.592430114746094 10.11766052246094 L 8.419139862060547 12.8553295135498 C 8.072810173034668 13.66343975067139 6.927189826965332 13.66343975067139 6.580849647521973 12.8553295135498 L 5.407569885253906 10.11766052246094 C 5.30642032623291 9.88163948059082 5.118359565734863 9.693580627441406 4.882340431213379 9.592430114746094 L 2.144669532775879 8.419139862060547 C 1.336560249328613 8.072810173034668 1.336560249328613 6.927189826965332 2.144669532775879 6.580849647521973 L 4.882340431213379 5.407569885253906 C 5.118359565734863 5.30642032623291 5.30642032623291 5.118359565734863 5.407569885253906 4.882340431213379 L 6.580849647521973 2.144669532775879 C 6.754019737243652 1.740614891052246 7.127009868621826 1.53858757019043 7.499998569488525 1.53858757019043 Z" stroke="none" fill="#222"/>
    </g>
    <g id="Polygon_2" data-name="Polygon 2" transform="translate(4965 -14445)" fill="none">
      <path d="M9.538,3.412a1,1,0,0,1,1.925,0l1.2,4.239a1,1,0,0,0,.691.691l4.239,1.2a1,1,0,0,1,0,1.925l-4.239,1.2a1,1,0,0,0-.691.691l-1.2,4.239a1,1,0,0,1-1.925,0l-1.2-4.239a1,1,0,0,0-.691-.691l-4.239-1.2a1,1,0,0,1,0-1.925l4.239-1.2a1,1,0,0,0,.691-.691Z" stroke="none"/>
      <path d="M 10.5 7.367570877075195 L 10.2669095993042 8.193981170654297 C 9.985600471496582 9.191301345825195 9.191300392150879 9.985601425170898 8.193949699401855 10.266921043396 L 7.367570877075195 10.50000190734863 L 8.19398021697998 10.73309135437012 C 9.191300392150879 11.01440048217773 9.985600471496582 11.80870056152344 10.26692008972168 12.80605125427246 L 10.50000095367432 13.63243007659912 L 10.7330904006958 12.80602073669434 C 11.01439952850342 11.80870056152344 11.80869960784912 11.01440048217773 12.80605030059814 10.73308086395264 L 13.6324291229248 10.5 L 12.80601978302002 10.26691055297852 C 11.80869960784912 9.985601425170898 11.01439952850342 9.191301345825195 10.73307991027832 8.193950653076172 L 10.5 7.367570877075195 M 10.5 2.683778762817383 C 10.91273021697998 2.683778762817383 11.32546043395996 2.926626205444336 11.46245002746582 3.412321090698242 L 12.65797996520996 7.651030540466309 C 12.7524299621582 7.985880851745605 13.01412010192871 8.247570991516113 13.34897041320801 8.342020988464355 L 17.58768081665039 9.537550926208496 C 18.5590705871582 9.811531066894531 18.5590705871582 11.1884708404541 17.58768081665039 11.46245098114014 L 13.34897041320801 12.65798091888428 C 13.01412010192871 12.75243091583252 12.7524299621582 13.01412105560303 12.65797996520996 13.34897041320801 L 11.46245002746582 17.58768081665039 C 11.1884708404541 18.5590705871582 9.811529159545898 18.5590705871582 9.53754997253418 17.58768081665039 L 8.342020034790039 13.34897041320801 C 8.247570037841797 13.01412105560303 7.985879898071289 12.75243091583252 7.651029586791992 12.65798091888428 L 3.412319183349609 11.46245098114014 C 2.440929412841797 11.1884708404541 2.440929412841797 9.811531066894531 3.412319183349609 9.537550926208496 L 7.651029586791992 8.342020988464355 C 7.985879898071289 8.247570991516113 8.247570037841797 7.985880851745605 8.342020034790039 7.651030540466309 L 9.53754997253418 3.412321090698242 C 9.674539566040039 2.926626205444336 10.08726978302002 2.683778762817383 10.5 2.683778762817383 Z" stroke="none" fill="#222"/>
    </g>
  </g>
</svg>
