<svg id="Icon_16px_Calendar-Year" data-name="Icon/16px/Calendar-Year" xmlns="http://www.w3.org/2000/svg" width="26.094" height="25.159" viewBox="0 0 26.094 25.159">
  <path id="Calendar-year" d="M17.968.2a1.119,1.119,0,0,1,1.106.953l.012.165V3.14h3.646a3.367,3.367,0,0,1,3.353,3.112l.009.251V22a3.368,3.368,0,0,1-3.112,3.353l-.25.009H3.362A3.368,3.368,0,0,1,.009,22.247L0,22V6.5A3.367,3.367,0,0,1,3.112,3.15l.25-.009H7.008V1.318a1.118,1.118,0,0,1,2.225-.165l.012.165V3.14h7.6V1.318A1.118,1.118,0,0,1,17.968.2ZM7.008,5.377H3.362a1.127,1.127,0,0,0-1.115.973l-.01.153V22a1.128,1.128,0,0,0,.973,1.115l.152.01H22.732a1.128,1.128,0,0,0,1.115-.973l.01-.152V6.5a1.127,1.127,0,0,0-.973-1.115l-.152-.01H19.086V7.2a1.118,1.118,0,0,1-2.225.165L16.849,7.2V5.377h-7.6V7.2a1.118,1.118,0,0,1-2.225.165L7.008,7.2Zm-1.146,13.2A1.182,1.182,0,1,1,4.68,19.759,1.182,1.182,0,0,1,5.862,18.576Zm4.807,0a1.182,1.182,0,1,1-1.181,1.182A1.182,1.182,0,0,1,10.67,18.576Zm4.781,0a1.182,1.182,0,1,1-1.181,1.182A1.182,1.182,0,0,1,15.45,18.576Zm4.861,0a1.182,1.182,0,1,1-1.182,1.182A1.182,1.182,0,0,1,20.311,18.576Zm-14.449-4.1A1.182,1.182,0,1,1,4.68,15.658,1.181,1.181,0,0,1,5.862,14.476Zm4.807,0a1.182,1.182,0,1,1-1.181,1.182A1.181,1.181,0,0,1,10.67,14.476Zm4.781,0a1.182,1.182,0,1,1-1.181,1.182A1.181,1.181,0,0,1,15.45,14.476Zm4.861,0a1.182,1.182,0,1,1-1.182,1.182A1.181,1.181,0,0,1,20.311,14.476Zm-14.449-4.1A1.182,1.182,0,1,1,4.68,11.556,1.181,1.181,0,0,1,5.862,10.375Zm4.807,0a1.182,1.182,0,1,1-1.181,1.181A1.181,1.181,0,0,1,10.67,10.375Zm4.781,0a1.182,1.182,0,1,1-1.181,1.181A1.181,1.181,0,0,1,15.45,10.375Zm4.861,0a1.182,1.182,0,1,1-1.182,1.181A1.181,1.181,0,0,1,20.311,10.375Z" transform="translate(0 -0.2)" fill="#222"/>
</svg>
