<svg id="Icon_16px_Banking" data-name="Icon/16px/Banking" xmlns="http://www.w3.org/2000/svg" width="26.094" height="26.094" viewBox="0 0 26.094 26.094">
  <path id="Banking" d="M13.047,26.094A13.047,13.047,0,1,0,0,13.047,13.047,13.047,0,0,0,13.047,26.094Zm0-2.237a10.81,10.81,0,1,1,10.81-10.81A10.81,10.81,0,0,1,13.047,23.857Zm.54-5.483V19.1a.582.582,0,0,1-.627.643.59.59,0,0,1-.643-.643v-.727a4.577,4.577,0,0,1-2.563-.988,1.956,1.956,0,0,1-.784-1.387.69.69,0,0,1,.731-.737c.266,0,.431.079.8.492a3.081,3.081,0,0,0,2.522,1.223c1.348,0,2.124-.619,2.124-1.613,0-.768-.492-1.215-1.677-1.5l-1.685-.415c-1.707-.4-2.624-1.411-2.624-2.869,0-1.693,1.254-2.867,3.212-3.049V6.839a.586.586,0,0,1,.635-.641.593.593,0,0,1,.643.641v.706a4.132,4.132,0,0,1,2.334,1.027,2.011,2.011,0,0,1,.721,1.356.65.65,0,0,1-.682.682,1.074,1.074,0,0,1-.862-.5,2.664,2.664,0,0,0-2.273-1.183c-1.191,0-1.959.625-1.959,1.528,0,.721.509,1.238,1.5,1.464l1.66.4c1.913.447,2.814,1.37,2.814,2.884,0,1.756-1.27,2.963-3.323,3.173" transform="translate(0 0)" fill="#222"/>
</svg>
