<svg id="Icon_16px_Books" data-name="Icon/16px/Books" xmlns="http://www.w3.org/2000/svg" width="19.384" height="26.094" viewBox="0 0 19.384 26.094">
  <path id="Books" d="M8.14,0a2.078,2.078,0,0,1,2.047,1.838l.014.223V24.033a2.078,2.078,0,0,1-1.838,2.047l-.223.014H4.061a2.078,2.078,0,0,1-2.047-1.838L2,24.033V2.061A2.077,2.077,0,0,1,3.837.014L4.061,0ZM19.323,0A2.078,2.078,0,0,1,21.37,1.838l.014.223V24.033a2.079,2.079,0,0,1-1.837,2.047l-.223.014h-4.08A2.078,2.078,0,0,1,13.2,24.256l-.014-.223V2.061A2.077,2.077,0,0,1,15.021.014L15.244,0ZM7.964,22.3H4.233v1.56l3.731,0Zm11.183,0H15.416v1.56l3.731,0Zm0-16.266H15.419l0,14.03h3.731Zm-11.183,0H4.236l0,14.03H7.964ZM19.15,2.237H15.42V3.8h3.728Zm-11.183,0H4.237V3.8h3.73Z" transform="translate(-2)" fill="#222"/>
</svg>
