<svg id="Icon_16px_Location" data-name="Icon/16px/Location" xmlns="http://www.w3.org/2000/svg" width="27.064" height="35.269" viewBox="0 0 27.064 35.269">
  <path id="Location" d="M15.531,0A13.524,13.524,0,0,1,29.064,13.531c0,5.594-3.829,12.546-9.507,19.78a5.118,5.118,0,0,1-8.052,0C5.825,26.071,2,19.124,2,13.531A13.522,13.522,0,0,1,15.531,0Zm0,3.449A10.073,10.073,0,0,0,5.449,13.531c0,4.543,3.564,11.016,8.768,17.65a1.669,1.669,0,0,0,2.627,0c5.2-6.629,8.771-13.106,8.771-17.65A10.075,10.075,0,0,0,15.531,3.449Zm5.734,11.668a5.887,5.887,0,0,1-4.15,4.149A5.956,5.956,0,0,1,9.8,11.945,5.884,5.884,0,0,1,13.946,7.8,5.958,5.958,0,0,1,21.265,15.116ZM14.829,11.13a2.443,2.443,0,0,0-1.608,1.432l-.088.264a2.507,2.507,0,0,0,3.1,3.105,2.437,2.437,0,0,0,1.7-1.7A2.509,2.509,0,0,0,14.829,11.13Z" transform="translate(-2 0)" fill="#222"/>
</svg>
