<?xml version="1.0" encoding="utf-8"?>
<!-- Generator: Adobe Illustrator 25.2.0, SVG Export Plug-In . SVG Version: 6.00 Build 0)  -->
<svg version="1.1" id="Layer_1" xmlns="http://www.w3.org/2000/svg" xmlns:xlink="http://www.w3.org/1999/xlink" x="0px" y="0px"
	 viewBox="0 0 135.5 70.5" style="enable-background:new 0 0 135.5 70.5;" xml:space="preserve">
<style type="text/css">
	.st0{fill:#FFFFFF;}
	.st1{fill:#FFBE00;stroke:#FFBE00;}
</style>
<path id="Path_1" class="st0" d="M35.3,31.7c0,5.2,0,10.4,0,15.6c0,4-2.8,7.5-6.7,8.4c-0.6,0.1-1.3,0.2-2,0.2c-5.9,0-11.9,0-17.8,0
	c-4.1,0.1-7.7-2.8-8.6-6.8C0,48.2,0,47.4,0,46.6c0-0.2-0.1-0.6,0.1-0.7c0.2-0.2,0.5,0,0.7,0c7.9,0,15.8,0,23.7,0
	c0.9,0,1.1-0.3,1.1-1.1c0-7.8,0-15.6,0-23.5c-0.1-2.3,1.3-4.4,3.4-5.4c0.8-0.4,1.7-0.6,2.5-0.6c1.1,0,2.1,0,3.2,0
	c0.5,0,0.5,0,0.5,0.5C35.3,21,35.3,26.3,35.3,31.7z"/>
<path id="Path_2" class="st0" d="M109.4,57.3l6.9,6.9c0,0.1-0.1,0.2-0.2,0.2c-1.8,1.8-3.6,3.6-5.3,5.3c-0.7,0.8-1.8,0.9-2.6,0.2
	c-0.1-0.1-0.1-0.1-0.2-0.2c-1.8-1.8-3.6-3.5-5.3-5.3c-0.3-0.3-0.3-0.3,0-0.5c2.2-2.2,4.4-4.4,6.6-6.6
	C109.3,57.4,109.3,57.4,109.4,57.3z"/>
<path id="Path_3" class="st0" d="M102.6,22.4h-9.9c-0.2,0-0.4,0-0.6,0c-0.4-0.1-0.6-0.4-0.6-0.8c0-0.4,0-0.7,0-1.1
	c0-0.2,0.1-0.3,0.2-0.2c0.1,0,0.2,0,0.3,0h20c0.1,0,0.2,0,0.4,0c0.4,0,0.8,0.4,0.8,0.8c0,0.4,0,0.8,0,1.1c0,0.2-0.1,0.2-0.2,0.2
	c-0.1,0-0.2,0-0.4,0L102.6,22.4z"/>
<path id="Path_4" class="st1" d="M131.9,0.5c0.3,0,0.5,0.2,0.5,0.5c0,0.3-0.2,0.6-0.6,0.6c-0.3,0-0.6-0.2-0.6-0.6c0,0,0,0,0,0
	C131.3,0.7,131.6,0.5,131.9,0.5C131.9,0.5,131.9,0.5,131.9,0.5z"/>
<path id="Path_5" class="st1" d="M129.1,1.1c0,0.3-0.3,0.5-0.6,0.5c0,0,0,0,0,0c-0.3,0-0.6-0.3-0.6-0.6c0,0,0,0,0,0
	c0-0.3,0.3-0.5,0.6-0.5c0,0,0,0,0,0C128.9,0.5,129.1,0.7,129.1,1.1C129.1,1,129.1,1.1,129.1,1.1z"/>
<path id="Path_6" class="st0" d="M134,45.9c0-0.2-0.1-0.3-0.2-0.3c-0.1,0-0.2,0-0.2,0c-1.3-0.1-2.5-0.5-3.6-1.2
	c-1.3-0.8-2.5-1.7-3.6-2.8c-1.6-1.5-3.2-3.1-4.7-4.8c-1.1-1.1-2.2-2.1-3.4-3.1c-3.8-3.1-8.4-5-13.3-5.5c-2.1-0.2-4.1-0.1-6.2,0.2
	c-3.7,0.7-7.2,2.3-10.1,4.6c-0.1,0.1-0.2,0.1-0.2,0.2c0,0,0,0.1,0.1,0.1c1.2,1.4,2.3,2.8,3.6,4c1.7,1.9,4.4,2.7,6.9,1.8
	c1.4-0.4,2.8-0.6,4.2-0.6c1.9,0.1,3.7,0.5,5.4,1.3c2.6,1.2,4.8,3.1,6.3,5.6c0,0,0,0,0,0.1h-0.2c-5.5,0-11,0.1-16.5,0.1
	c-3.2,0-6.4,0-9.6,0c-0.2,0-0.3,0-0.5,0c-1,0-1.8-0.8-1.8-1.9c-0.1-2.6-0.9-5.1-2.1-7.4c-1.4-2.7-3.7-4.8-6.5-5.9
	c-1.4-0.5-2.9-0.9-4.4-1c-1.6-0.2-3.1-0.1-4.6,0.3c-5,1-9,4.7-10.3,9.6c-0.4,1.4-0.6,2.8-0.6,4.2c0,1.2-0.9,2.1-2.1,2.2
	c0,0-0.1,0-0.1,0c-0.2,0-0.5,0-0.7,0c-1.1,0-2.1-0.4-2.9-1.2c-1-0.9-1.5-2.2-1.5-3.5c0-6.7,0-13.4,0-20c0-0.4,0-0.9-0.1-1.3
	c-0.5-2.9-3-5.1-6-5.1c-1,0-2,0-3,0c-0.6,0-0.5-0.1-0.5,0.5c0,10.6,0,21.2,0,31.7c0,1.9,0.6,3.7,1.7,5.3c1.8,2.8,5,4.2,8.3,3.7
	c2.8-0.4,5.3-2.1,6.7-4.6c0.1-0.2,0.2-0.4,0.3-0.5c0.3-0.5,0.9-0.6,1.4-0.4c0.3,0.1,0.5,0.4,0.6,0.6c2.9,4.9,8.5,7.6,14.2,6.8
	c3.3-0.4,6.4-2.1,8.6-4.5c0.5-0.6,1-1.2,1.4-1.8c0.3-0.5,1-0.7,1.5-0.4c0.2,0.1,0.3,0.2,0.4,0.4c0.1,0.1,0.1,0.2,0.2,0.3
	c0.5,0.7,1.1,1.4,1.8,1.9c2.2,1.8,4.9,2.7,7.7,2.7c3.8,0,7.7,0,11.5,0c5.9,0,11.7,0,17.6,0c3,0.1,5.8-1.4,7.6-3.8
	c1.1-1.5,1.8-3.3,1.8-5.2C134,47,134,46.4,134,45.9z M71.9,48.8c-2.7,0-4.9-2.2-4.9-4.9c0-0.1,0-0.1,0-0.2c0-2.7,2.1-4.9,4.8-4.9
	c0.1,0,0.1,0,0.2,0c2.7,0,5,2.2,4.9,5c0,0,0,0,0,0C76.8,46.6,74.6,48.8,71.9,48.8L71.9,48.8z"/>
<path id="Path_7" class="st1" d="M135,6.1c0-1.1-0.9-2-1.9-2c0,0,0,0-0.1,0c-1.8,0-3.6,0-5.4,0c-0.2,0-0.3,0-0.5,0
	c-0.8,0.2-1.4,0.9-1.3,1.8c0,1.6,0,3.2,0,4.8c0,0.3,0.1,0.6,0.1,0.8c0.1,0.2,0.1,0.4,0.2,0.6c-0.1,0-0.2,0-0.3,0c-1,0-2,0-3,0
	c-0.4,0-0.4,0-0.4-0.4c0-1.3,0-2.6,0-4c0-0.3,0-0.5-0.1-0.8c-0.4-1.7-1.8-2.8-3.5-2.8c-4.2,0-8.4,0-12.5,0c-0.9,0-1.7,0.3-2.5,0.8
	c-0.1,0.1-0.1,0.2-0.3,0.1c0-0.4,0-0.8,0-1.2c0-0.3-0.2-0.6-0.5-0.6c0,0-0.1,0-0.1,0c-0.3,0-0.6,0.2-0.6,0.5c0,0,0,0,0,0
	c0,0.1,0,0.3,0,0.4c0,2.5,0,4.9,0,7.4c0,0.5,0,0.5-0.4,0.5c-1.3,0-2.5,0-3.8,0c-0.4,0-0.4,0-0.4-0.4c0-1.3,0-2.6,0-3.9
	c0-2-1.5-3.6-3.5-3.7c-0.1,0-0.1,0-0.2,0c-4.1,0-8.3,0-12.4,0c-0.8,0-1.7,0.3-2.3,0.7c-0.1,0.1-0.2,0.2-0.4,0.2c0-0.1,0-0.1,0-0.2
	c0-0.3,0-0.7,0-1c0-0.3-0.2-0.6-0.5-0.6c0,0,0,0-0.1,0c-0.3,0-0.6,0.2-0.6,0.5c0,0,0,0,0,0c0,0.1,0,0.3,0,0.4c0,2.7,0,5.5,0,8.2
	c0,0.5-0.1,1-0.2,1.5c-0.7,3-3.5,4.9-6.5,4.5c-2.8-0.4-4.9-2.8-5-5.7c0-1.3,0-2.5,0-3.8c0-0.2,0-0.3,0-0.5c-0.1-0.3-0.3-0.4-0.6-0.4
	c-0.3,0-0.5,0.2-0.6,0.4c0,0.2-0.1,0.3,0,0.5c0,1,0,2.1,0,3.1c0,0.6,0,1.1,0.2,1.7c0.7,3.8,4.3,6.4,8.2,5.7c0.9-0.2,1.7-0.5,2.5-0.9
	c1.7-1,2.9-2.7,3.3-4.7c0.1-0.7,0.1-0.6,0.7-0.6c16.6,0,33.3,0,49.9,0c1.6,0,3.2,0,4.8,0c0.6,0,0.8-0.2,0.8-0.8
	C135,10.4,135,8.3,135,6.1z M96.5,11.8c0,0.3,0,0.3-0.4,0.3c-1.7,0-3.3,0-5,0H79.4c-0.6,0-0.5,0.1-0.5-0.5c0-1.1,0-2.2,0-3.4
	c0-0.2,0-0.5,0.1-0.7c0.2-1.2,1.2-2.1,2.4-2.2c0.1,0,0.2,0,0.4,0c4.1,0,8.1,0,12.2,0c0.6,0,1.2,0.1,1.6,0.5c0.6,0.4,0.9,1.1,0.9,1.8
	C96.5,9,96.5,10.4,96.5,11.8z M121.3,11.8c0,0.3,0,0.3-0.4,0.3c-1.6,0-3.2,0-4.8,0h-11.8c-0.1,0-0.2,0-0.3,0c-0.4,0-0.4,0-0.4-0.4
	c0-1.2,0-2.5,0-3.7c0-1.5,1.1-2.6,2.6-2.7c0.1,0,0.2,0,0.3,0c4.1,0,8.1,0,12.2,0c0.6,0,1.2,0.1,1.7,0.5c0.6,0.4,0.9,1.1,0.9,1.8
	C121.3,9,121.3,10.4,121.3,11.8L121.3,11.8z M133.8,9c0,0.9,0,1.8,0,2.8c0,0.3,0,0.4-0.4,0.4c-1.7,0-3.4,0-5,0
	c-0.7,0-1.3-0.6-1.3-1.3c0,0,0,0,0-0.1c0-1.6,0-3.2,0-4.9c0-0.5,0.1-0.6,0.6-0.6c1.8,0,3.6,0,5.4,0c0.5,0,0.8,0.3,0.8,0.8
	C133.8,7.1,133.8,8.1,133.8,9L133.8,9z"/>
</svg>
