<svg xmlns="http://www.w3.org/2000/svg" width="40.49" height="41.529" viewBox="0 0 40.49 41.529">
  <g id="Group_408" data-name="Group 408" transform="translate(0 -0.002)">
    <path id="Path_389" data-name="Path 389" d="M0,0H18.464l-2.6,9.446H2.325Z" transform="translate(14.226 24.069)" fill="#ffbe00" opacity="0.399"/>
    <path id="Path_387" data-name="Path 387" d="M3.944,0S8.755,6.215,8.755,8.633A4.377,4.377,0,0,1,0,8.633C0,6.215,3.944,0,3.944,0Z" transform="matrix(0.695, -0.719, 0.719, 0.695, 3.223, 9.582)" fill="#ffbe00" opacity="0.399"/>
    <path id="Path_388" data-name="Path 388" d="M3.943,13.01S8.754,6.794,8.754,4.377A4.377,4.377,0,1,0,0,4.377C0,6.795,3.943,13.01,3.943,13.01Z" transform="matrix(-0.695, -0.719, 0.719, -0.695, 24.625, 15.335)" fill="#ffbe00" opacity="0.399"/>
    <g id="nature-plant-1" transform="translate(0 1.041)">
      <g id="Frames-24px">
        <rect id="Rectangle_227" data-name="Rectangle 227" width="40.49" height="40.49" fill="none"/>
      </g>
      <g id="Outline" transform="translate(3.936 4.327)">
        <g id="Group_372" data-name="Group 372">
          <path id="Path_369" data-name="Path 369" d="M10.614,17.782A5.741,5.741,0,0,0,14.379,7.706C12.154,5.774,5.044,5.089,2.345,4.79c.363,1.679,1.757,9.2,4.507,11.587A5.747,5.747,0,0,0,10.614,17.782Zm1.563-7.544a2.388,2.388,0,0,1,.238,3.367,2.457,2.457,0,0,1-3.362.237c-.8-.7-1.689-2.964-2.325-5.12C9.22,9.136,11.592,9.732,12.176,10.239Z" transform="translate(-2.345 -1.077)" fill="#222"/>
          <path id="Path_370" data-name="Path 370" d="M18.959,16.6a6.354,6.354,0,0,0,8.156-.816c2.279-2.34,3.528-10.233,4.03-13.207-1.679.264-10.321,1.378-13.173,4.307a6.382,6.382,0,0,0-1.277,7,8.292,8.292,0,0,0-1.623,4.628V23.43H6.678a1.681,1.681,0,0,0-1.593,2.209L8.443,35.711a1.677,1.677,0,0,0,1.593,1.148H23.464a1.677,1.677,0,0,0,1.593-1.148l3.357-10.072a1.681,1.681,0,0,0-1.593-2.209H18.428V18.513A4.377,4.377,0,0,1,18.959,16.6Zm3.295,16.9H11.244L9.007,26.787H24.493ZM20.377,9.229c.94-.965,3.918-1.909,6.605-2.515-.658,3.03-1.569,6.006-2.273,6.728a3.022,3.022,0,0,1-4.332-4.213Z" transform="translate(-0.543 -2.578)" fill="#222"/>
        </g>
      </g>
    </g>
  </g>
</svg>
